PathFileType	4	(X/Y/Z)	s11c0202.trc
DataRate	CameraRate	NumFrames	NumMarkers	Units	OrigDataRate	OrigDataStartFrame	OrigNumFrames
200	200	6	48	mm	200	1000	2000
Frame#	Time	racr			lacr			c7			jug			rlel			rdr			llel			ldr			s2			lic			ric			lasi			rasi			rpsi			lpsi			rgt			lgt			rth1			rth2			rth3			rth4			rlfc			rmfc			rsh1			rsh2			rsh3			rsh4			rlmal			rcal			rtoe			rmt5			lth1			lth2			lth4			lth3			llfc			lmfc			llmal			lcal			lmt5			lsh1			lsh2			lsh3			lsh4			ltoe			SBIKE			LBIKE			RBIKE			
		X1	Y1	Z1	X2	Y2	Z2	X3	Y3	Z3	X4	Y4	Z4	X5	Y5	Z5	X6	Y6	Z6	X7	Y7	Z7	X8	Y8	Z8	X9	Y9	Z9	X10	Y10	Z10	X11	Y11	Z11	X12	Y12	Z12	X13	Y13	Z13	X14	Y14	Z14	X15	Y15	Z15	X16	Y16	Z16	X17	Y17	Z17	X18	Y18	Z18	X19	Y19	Z19	X20	Y20	Z20	X21	Y21	Z21	X22	Y22	Z22	X23	Y23	Z23	X24	Y24	Z24	X25	Y25	Z25	X26	Y26	Z26	X27	Y27	Z27	X28	Y28	Z28	X29	Y29	Z29	X30	Y30	Z30	X31	Y31	Z31	X32	Y32	Z32	X33	Y33	Z33	X34	Y34	Z34	X35	Y35	Z35	X36	Y36	Z36	X37	Y37	Z37	X38	Y38	Z38	X39	Y39	Z39	X40	Y40	Z40	X41	Y41	Z41	X42	Y42	Z42	X43	Y43	Z43	X44	Y44	Z44	X45	Y45	Z45	X46	Y46	Z46	X47	Y47	Z47	X48	Y48	Z48	
1000	5.0000	568.106055	1329.233377	-209.005625	475.094487	1354.043822	-493.896024	465.803806	1431.930156	-340.762425	459.301803	1248.457242	-346.395084	606.592487	1155.102487	17.330712	775.256470	970.598973	-88.683739	484.200325	1085.471261	-635.757303	747.303004	957.765129	-496.181138	-99.615659	1221.115697	-218.848037	74.990087	1253.824574	-456.941629	147.908162	1209.100927	-54.097952	111.389679	1185.827662	-413.814205	166.169947	1148.779711	-84.343409	-41.976925	1292.298815	-163.903988	-66.524971	1291.762325	-254.453765	57.926964	1054.936187	-32.240358	14.122096	1143.058884	-461.810208	140.587990	938.389520	-28.693126	209.114651	880.836731	-36.939489	240.138708	800.614533	-54.187963	238.467867	903.395485	-43.353462	301.101619	711.982934	-72.013759	307.644753	697.774765	-198.136053	226.823672	572.420402	-60.730352	202.627024	490.036701	-82.227990	141.907687	427.727135	-84.979013	225.914842	481.326371	-112.504339	67.966349	310.796615	-98.388885	4.688713	318.956660	-146.945281	253.326731	175.071191	-148.295318	180.197627	177.492528	-77.621197	152.384822	1093.831569	-487.622231	237.696630	1087.321210	-491.157397	251.749035	1119.408339	-477.997121	311.141028	1037.121179	-504.065985	442.328041	972.493647	-496.127301	471.114837	966.604667	-364.034475	249.874795	584.813750	-433.566127	188.458260	555.639163	-393.837856	372.804267	457.790026	-458.765430	388.337958	861.977307	-500.264128	375.784727	778.324178	-482.791854	321.767046	709.722202	-467.796366	407.776769	768.759538	-463.252560	471.221930	463.102841	-391.051902	-215.197850	953.149612	-255.350945	-17.814177	81.215958	-461.040249	-17.766253	81.103793	-62.090120	
1001	5.0050	568.980838	1324.456314	-210.552646	475.023846	1353.027697	-493.226657	466.275422	1430.495172	-341.095058	457.751834	1247.219585	-348.869118	606.405263	1153.754453	18.141475	774.767047	970.621397	-88.057165	483.612660	1085.633363	-636.325649	746.617216	958.032588	-496.675764	-99.798610	1221.493648	-218.098247	72.763464	1254.669098	-456.540086	147.279683	1209.534702	-53.337496	109.502913	1184.382482	-414.625525	165.271230	1148.529244	-83.806123	-42.208779	1292.925437	-163.362850	-66.723453	1292.094851	-253.602235	58.625941	1055.206412	-32.216152	11.300928	1141.497849	-459.933944	143.635532	939.841578	-28.931959	213.320048	883.760519	-36.791697	245.908691	804.004175	-53.694111	242.175609	906.708813	-43.644263	308.260341	716.210813	-71.118651	315.256015	701.976901	-197.113150	230.910659	578.388428	-60.073140	204.914124	496.515133	-81.650273	142.742916	435.718552	-84.512041	228.036681	487.298690	-111.973820	66.301839	321.054952	-97.900577	3.407274	331.792875	-146.856109	245.838551	177.384509	-148.363560	173.020055	183.105840	-77.758373	150.536238	1090.258373	-487.361229	235.675030	1082.318002	-491.202740	250.300864	1114.328887	-478.382119	308.290832	1030.755716	-503.990830	440.098071	963.575935	-494.353648	468.465036	957.419219	-364.023440	251.646412	571.850429	-435.673287	190.348498	540.125418	-395.115721	379.140813	450.233921	-459.946223	386.018396	851.885416	-500.663186	374.549351	768.035881	-483.507938	321.376288	698.615081	-468.965538	406.732802	758.654806	-463.817723	477.045465	461.214144	-391.952786	-215.249605	953.242921	-255.567280	-17.838978	81.183538	-461.038947	-17.779570	81.104012	-62.104221	
1002	5.0100	569.685574	1319.850987	-212.069074	474.961627	1352.557378	-492.761546	466.930466	1429.554632	-341.410193	455.943845	1246.552391	-351.370242	606.142518	1152.528378	18.990833	774.201541	970.611971	-87.622401	483.019798	1085.951921	-636.657415	746.018854	958.932662	-497.794267	-99.965186	1221.624568	-217.301894	70.498536	1254.881405	-455.576559	146.588397	1210.019912	-52.564265	107.928850	1182.827263	-416.053995	164.159671	1148.102768	-82.733439	-42.496471	1293.395221	-162.673810	-66.882964	1292.145016	-252.754309	59.546293	1055.379666	-32.276579	9.294339	1140.361210	-458.955164	146.943748	941.465282	-29.272249	217.724613	886.681594	-37.059114	251.947330	807.586355	-53.350074	246.072528	910.243578	-44.023343	315.790750	720.755132	-70.231285	323.012754	706.350847	-196.126723	235.343125	584.556097	-59.540453	207.568532	503.479981	-81.100486	144.141721	443.953481	-84.103771	230.502962	493.740868	-111.449025	65.113234	331.450103	-97.411168	2.762788	344.676615	-146.551583	238.691684	180.139757	-148.509674	166.230399	189.216039	-77.842372	148.816323	1085.852463	-487.227238	233.802333	1076.334934	-491.319142	249.057656	1108.143667	-478.853526	305.379826	1023.344681	-503.962368	436.663724	953.903884	-493.502004	465.544235	947.552015	-363.975315	253.319264	558.011311	-437.498241	192.252398	523.527933	-396.163353	385.131911	442.312999	-460.970858	383.430084	840.754625	-500.926366	372.998339	756.699167	-484.034103	320.772646	686.621736	-469.602236	405.302277	747.834152	-464.500652	482.343979	458.608430	-392.670120	-215.233083	953.112366	-256.009958	-17.859010	81.119203	-461.024355	-17.792340	81.096391	-62.115054	
1003	5.0150	570.393880	1315.031966	-213.181193	474.976410	1352.253093	-492.184589	467.435667	1428.418280	-340.985070	454.508917	1245.743887	-353.609696	605.868168	1151.156326	19.775055	773.729893	970.725460	-87.331958	482.428558	1086.520484	-636.846185	744.820556	959.321423	-497.821672	-100.170280	1221.595499	-216.528026	68.365379	1254.825360	-454.731155	145.696041	1210.347842	-51.912721	106.514621	1181.035047	-417.464207	163.170626	1146.935938	-82.084422	-42.806537	1293.732673	-162.092802	-66.942479	1291.993526	-251.975772	60.690155	1055.433188	-32.402208	7.513893	1138.943498	-457.960077	150.493093	943.126114	-29.465612	222.375230	889.791672	-37.368700	258.265634	811.366158	-53.097134	250.081016	913.822759	-44.637462	323.522525	725.622586	-69.428539	330.617343	711.155708	-195.492359	240.043610	591.015992	-59.134829	210.507325	510.568837	-80.670016	145.859482	452.293158	-83.603183	233.296708	500.199925	-110.950149	64.605730	342.189020	-96.748898	2.823337	358.051444	-146.043581	231.712079	183.434894	-148.920735	159.922830	195.583882	-78.090191	147.163312	1080.696902	-487.098013	231.942923	1069.578103	-491.353313	247.825928	1101.200518	-479.500539	302.388945	1015.063792	-503.680581	432.637724	943.320057	-492.872373	461.990715	936.660973	-363.724332	254.817115	543.446211	-438.623949	194.073766	506.389069	-396.758798	390.502041	434.051810	-461.737541	380.609584	828.561773	-500.974025	371.120706	744.190023	-483.818591	319.973976	673.531096	-469.744754	403.652423	736.297102	-464.731267	486.922613	455.375982	-393.182043	-215.222670	952.999140	-256.082608	-17.835260	81.067063	-461.031462	-17.779826	81.063220	-62.120995	
1004	5.0200	570.739293	1310.470333	-214.204394	475.044325	1352.146192	-491.537870	467.889367	1427.367048	-340.336975	453.081980	1245.078382	-355.656479	605.545030	1149.793932	20.492614	773.275377	970.637624	-87.156942	481.928026	1087.187997	-636.766147	743.570926	959.361537	-497.534447	-100.372280	1221.270299	-215.714979	66.317215	1254.141821	-453.688819	144.776855	1210.611156	-51.167093	105.259805	1178.763728	-418.690551	161.997286	1146.085454	-81.559316	-43.164121	1293.790346	-161.439444	-67.006481	1291.435344	-251.290012	61.992206	1055.409236	-32.586859	6.126361	1137.184131	-457.101271	154.190216	944.840375	-29.687869	227.198961	893.190952	-37.690811	264.524408	815.266234	-52.922709	254.263573	917.745112	-45.171411	331.198834	730.892520	-68.674570	338.178563	716.055770	-194.861914	244.992668	597.766500	-58.686671	213.868014	517.778761	-80.158448	148.002681	461.005932	-83.141385	236.502378	507.015178	-110.355273	64.620936	353.013834	-96.089624	3.672382	371.108775	-145.613357	225.130785	187.328545	-149.322152	154.097513	202.476445	-78.364491	145.518359	1074.951524	-486.926009	230.095236	1062.094768	-491.334766	246.686632	1093.609679	-480.037148	299.385566	1006.090539	-503.127916	427.988096	932.042664	-492.461724	458.112330	925.075311	-363.520555	256.125556	528.380713	-438.838608	196.004158	488.830090	-396.622977	395.374965	425.375462	-462.273825	377.432048	815.512175	-501.161917	369.132763	731.082413	-483.448107	319.015298	659.743331	-469.439309	401.691763	723.572556	-464.288198	490.830377	451.149690	-393.599298	-215.209487	952.909714	-256.155944	-17.809169	81.037369	-461.024723	-17.755804	81.044399	-62.145176	
1005	5.0250	570.982417	1305.929414	-214.707154	474.948578	1352.623934	-491.372892	468.269834	1426.445489	-339.502170	451.749259	1244.589823	-357.542141	605.171648	1148.454437	21.124698	772.785774	970.421626	-87.190769	481.515037	1087.925312	-636.479684	742.272578	959.188355	-497.169858	-100.486050	1220.650023	-215.053176	64.537642	1253.099578	-452.911990	143.885062	1210.627606	-50.502853	104.169975	1176.461094	-419.900324	160.812027	1145.413525	-81.150320	-43.583054	1293.601026	-160.763561	-67.215774	1290.879439	-250.510395	63.518669	1055.364998	-32.777878	5.011320	1135.081309	-456.262763	157.930098	946.781763	-30.117894	232.197946	896.762798	-37.918484	271.225885	819.513285	-52.928369	258.676596	921.865869	-46.101058	338.890410	736.337671	-68.084108	345.469711	721.340483	-194.618923	250.123947	604.600818	-58.359702	217.466043	525.329924	-79.711625	150.593040	469.734388	-82.627918	239.929184	514.092280	-109.881835	65.180111	363.921087	-95.435713	5.016391	384.470043	-145.002370	218.832048	191.729263	-150.006116	148.767503	209.833466	-78.693190	143.873580	1069.031946	-486.755458	228.131713	1054.186257	-491.282567	245.457007	1085.535380	-480.732915	296.179789	996.600699	-502.394227	423.411667	919.576434	-491.465601	453.794769	913.004051	-363.193516	257.224140	512.913985	-438.199035	198.060513	471.303380	-396.076309	399.786279	416.289121	-462.576515	374.062107	801.785839	-501.060797	367.031455	717.320282	-482.700545	317.970668	645.173082	-468.730460	399.623502	710.500560	-463.749627	494.301402	445.868536	-393.969563	-215.156081	952.852553	-256.165251	-17.810831	80.987208	-461.063822	-17.732321	81.002212	-62.115473	
